<?xml version="1.0" standalone="no"?>
<!DOCTYPE svg PUBLIC "-//W3C//DTD SVG 20010904//EN"
 "http://www.w3.org/TR/2001/REC-SVG-20010904/DTD/svg10.dtd">
<svg version="1.0" xmlns="http://www.w3.org/2000/svg"
 width="160.000000pt" height="160.000000pt" viewBox="0 0 160.000000 160.000000"
 preserveAspectRatio="xMidYMid meet">
<metadata>
Created by potrace 1.11, written by Peter Selinger 2001-2013
</metadata>
<g transform="translate(0.000000,160.000000) scale(0.100000,-0.100000)"
fill="#000000" stroke="none">
<path d="M453 1154 c-189 -189 -343 -348 -343 -354 0 -6 155 -165 345 -355
l345 -345 350 350 350 350 -350 350 c-192 192 -351 350 -352 349 -2 0 -157
-156 -345 -345z m462 66 l110 -110 -40 -40 -40 -40 -73 71 -73 70 -185 -185
-185 -185 70 -72 c67 -70 69 -73 53 -94 -9 -11 -27 -29 -40 -39 l-24 -19 -112
112 -111 111 265 265 c146 146 267 265 270 265 3 0 55 -50 115 -110z m310
-310 l110 -110 -268 -268 -267 -267 -112 112 -113 113 41 40 40 41 72 -71 71
-70 186 185 187 185 -34 33 c-18 19 -50 52 -71 74 l-37 39 36 37 c21 20 40 37
43 37 4 0 56 -50 116 -110z m-320 -10 l100 -100 -103 -103 -102 -102 -102 102
-103 103 100 100 c55 55 102 100 105 100 3 0 50 -45 105 -100z"/>
</g>
</svg>
